# xmcd
# Copyright (C) 1995-1998 Ti Kan
#
# Track frame offsets:
#       150
#       12431
#       27449
#       46161
#       55151
#       66897
#       82656
#       93971
#       106449
#       117877
#       129070
#       140638
#       155066
#       168069
#       191778
#
# Disc length: 2710 seconds
#
# Revision: 0
# Processed by: cddbd v1.5.2PL0 Copyright (c) Steve Scherf et al.
# Submitted via: CD-Import v1.0
#
DISCID=bd0a940f
DTITLE=Senior Pepe - Blöd Im Chopf
DYEAR=2008
DGENRE=
TTITLE0=Blöd Im Chopf
TTITLE1=Abendgebet
TTITLE2=Mis Härz Het Durscht
TTITLE3=Pas Seulement À Avignon
TTITLE4=I Bi Niemer - Nüt
TTITLE5=Ufblasbar
TTITLE6=Sändwitschbrot
TTITLE7=Boudoir
TTITLE8=Unmönschlech
TTITLE9=Mi Scheff
TTITLE10=Klone
TTITLE11=Sandele
TTITLE12=Zwärgli
TTITLE13=Autobahn
TTITLE14=Zugabe (Live): Michey Maus Isst Popcorn
EXTD=
EXTT0=
EXTT1=
EXTT2=
EXTT3=
EXTT4=
EXTT5=
EXTT6=
EXTT7=
EXTT8=
EXTT9=
EXTT10=
EXTT11=
EXTT12=
EXTT13=
EXTT14=
PLAYORDER=
